<svg class="sprite" xmlns="http://www.w3.org/2000/svg" xmlns:xlink="http://www.w3.org/1999/xlink"><symbol viewBox="0 0 24 24" id="heart" xmlns="http://www.w3.org/2000/svg"><path d="M17.329 3c.61 0 1.215.13 1.78.383.564.253 1.08.625 1.514 1.095.435.47.781 1.03 1.018 1.648A5.46 5.46 0 0 1 22 8.076a5.46 5.46 0 0 1-.359 1.951 5.122 5.122 0 0 1-1.018 1.648l-1.14 1.235L12 21l-7.482-8.09-1.143-1.233C2.496 10.727 2 9.43 2 8.077s.497-2.648 1.375-3.599C4.253 3.53 5.44 3 6.671 3c1.232 0 2.417.53 3.295 1.478l1.142 1.234c.235.254.557.396.892.396.335 0 .657-.142.892-.396l1.14-1.234a4.67 4.67 0 0 1 1.517-1.095A4.35 4.35 0 0 1 17.329 3Z" stroke-width="2.222" stroke-linecap="round" stroke-linejoin="round"/></symbol></svg>