<svg width="17" height="16" viewBox="0 0 17 16" fill="none" xmlns="http://www.w3.org/2000/svg">
<g clip-path="url(#clip0_2026_417)">
<path d="M2.09998 2.40039H4.3095L5.78988 9.79677C5.84039 10.0511 5.97874 10.2795 6.18072 10.4421C6.38269 10.6047 6.63541 10.6911 6.89464 10.6861H12.2638C12.523 10.6911 12.7757 10.6047 12.9777 10.4421C13.1797 10.2795 13.318 10.0511 13.3685 9.79677L14.2524 5.1623H4.86188M7.0714 13.448C7.0714 13.7531 6.82409 14.0004 6.51902 14.0004C6.21395 14.0004 5.96664 13.7531 5.96664 13.448C5.96664 13.1429 6.21395 12.8956 6.51902 12.8956C6.82409 12.8956 7.0714 13.1429 7.0714 13.448ZM13.1476 13.448C13.1476 13.7531 12.9003 14.0004 12.5952 14.0004C12.2901 14.0004 12.0428 13.7531 12.0428 13.448C12.0428 13.1429 12.2901 12.8956 12.5952 12.8956C12.9003 12.8956 13.1476 13.1429 13.1476 13.448Z" stroke="white" stroke-width="1.5" stroke-linecap="round" stroke-linejoin="round"/>
</g>
<defs>
<clipPath id="clip0_2026_417">
<rect width="17" height="16" fill="white"/>
</clipPath>
</defs>
</svg>
