<svg width="22" height="24" viewBox="0 0 22 24" fill="none" xmlns="http://www.w3.org/2000/svg">
<g clip-path="url(#clip0_1_6996)">
<path fill-rule="evenodd" clip-rule="evenodd" d="M0 3.11942C0 2.88393 0.0935481 2.65809 0.260065 2.49157C0.426581 2.32505 0.652426 2.23151 0.887917 2.23151H4.43958C4.64477 2.23163 4.84359 2.30282 5.00222 2.43296C5.16086 2.56311 5.26952 2.74418 5.30974 2.94539L6.05559 6.67109H20.4221C20.5527 6.67114 20.6818 6.70001 20.8 6.75566C20.9182 6.81131 21.0226 6.89235 21.1059 6.99302C21.1892 7.09368 21.2492 7.21148 21.2817 7.33802C21.3143 7.46455 21.3184 7.5967 21.294 7.72505L19.8725 15.1818C19.7509 15.7936 19.4185 16.3433 18.9332 16.7352C18.4478 17.1271 17.8404 17.3362 17.2167 17.3261H8.60391C7.9805 17.336 7.37335 17.1269 6.88823 16.7353C6.40311 16.3436 6.07075 15.7942 5.94904 15.1827L4.46622 7.77122C4.46012 7.74659 4.45508 7.7217 4.45113 7.69663L3.71149 4.00734H0.887917C0.652426 4.00734 0.426581 3.91379 0.260065 3.74727C0.0935481 3.58076 0 3.35491 0 3.11942ZM6.41076 8.44692L7.68936 14.8355C7.72996 15.0399 7.84115 15.2235 8.00348 15.3542C8.16581 15.4848 8.36892 15.5542 8.57727 15.5503H17.2433C17.451 15.5539 17.6534 15.4847 17.8153 15.3546C17.9772 15.2245 18.0884 15.0417 18.1295 14.8381L19.3495 8.44692H6.41165H6.41076ZM6.21542 20.7002C6.21542 20.2292 6.40251 19.7775 6.73555 19.4445C7.06858 19.1114 7.52027 18.9243 7.99125 18.9243C8.46223 18.9243 8.91392 19.1114 9.24695 19.4445C9.57999 19.7775 9.76708 20.2292 9.76708 20.7002C9.76708 21.1712 9.57999 21.6228 9.24695 21.9559C8.91392 22.2889 8.46223 22.476 7.99125 22.476C7.52027 22.476 7.06858 22.2889 6.73555 21.9559C6.40251 21.6228 6.21542 21.1712 6.21542 20.7002ZM15.9825 20.7002C15.9825 20.2292 16.1696 19.7775 16.5026 19.4445C16.8357 19.1114 17.2874 18.9243 17.7583 18.9243C18.2293 18.9243 18.681 19.1114 19.014 19.4445C19.3471 19.7775 19.5342 20.2292 19.5342 20.7002C19.5342 21.1712 19.3471 21.6228 19.014 21.9559C18.681 22.2889 18.2293 22.476 17.7583 22.476C17.2874 22.476 16.8357 22.2889 16.5026 21.9559C16.1696 21.6228 15.9825 21.1712 15.9825 20.7002Z" fill="#111112"/>
</g>
<defs>
<clipPath id="clip0_1_6996">
<rect width="21.31" height="23.9972" fill="white"/>
</clipPath>
</defs>
</svg>
