<svg width="22" height="24" viewBox="0 0 22 24" fill="none" xmlns="http://www.w3.org/2000/svg">
<path fill-rule="evenodd" clip-rule="evenodd" d="M12.4837 4.40334C13.1024 4.14204 13.7672 4.00741 14.4389 4.00741C15.1105 4.00741 15.7753 4.14204 16.3941 4.40334C17.0138 4.66527 17.575 5.04796 18.0474 5.52921C18.5203 6.01146 18.8943 6.58155 19.1484 7.20738C19.6634 8.4738 19.6634 9.8913 19.1484 11.1577C18.8943 11.7835 18.5203 12.3536 18.0474 12.8359L11.2876 19.7235C11.205 19.8076 11.1064 19.8745 10.9976 19.9201C10.8889 19.9657 10.7721 19.9892 10.6541 19.9892C10.5362 19.9892 10.4194 19.9657 10.3106 19.9201C10.2018 19.8745 10.1032 19.8076 10.0206 19.7235L3.26177 12.8359C2.30718 11.8594 1.77353 10.5476 1.7754 9.1821C1.7754 7.81471 2.30815 6.50059 3.26177 5.52921C3.73167 5.04837 4.29278 4.6661 4.91223 4.40478C5.53169 4.14346 6.19705 4.00834 6.86937 4.00732C8.22611 4.00732 9.52424 4.55783 10.4779 5.52921L10.6546 5.70946L10.8313 5.52921C11.3022 5.04837 11.8639 4.6657 12.4837 4.40334ZM14.4389 5.78316C14.0056 5.78316 13.5758 5.87017 13.1745 6.03977C12.7711 6.21071 12.4056 6.46 12.0992 6.77318L11.2876 7.59895C11.205 7.68311 11.1064 7.74996 10.9976 7.7956C10.8889 7.84124 10.7721 7.86474 10.6541 7.86474C10.5362 7.86474 10.4194 7.84124 10.3106 7.7956C10.2018 7.74996 10.1032 7.68311 10.0206 7.59895L9.20992 6.77318C8.90529 6.46072 8.54136 6.21221 8.13946 6.04221C7.73755 5.87221 7.30575 5.78414 6.86937 5.78316C5.99478 5.78316 5.15303 6.13832 4.52883 6.77318C3.90047 7.41741 3.54952 8.28218 3.55123 9.1821C3.55123 10.0896 3.90462 10.9553 4.52883 11.5919L10.6546 17.834L16.7794 11.5919C17.0884 11.2767 17.3344 10.902 17.5031 10.4882C17.8435 9.65076 17.8435 8.71345 17.5031 7.87598C17.3361 7.46471 17.0902 7.09007 16.7794 6.77318C16.4727 6.45995 16.1069 6.21067 15.7033 6.03977C15.3032 5.87056 14.8732 5.78331 14.4389 5.78316Z" fill="#111112"/>
</svg>
