<svg width="24" height="24" viewBox="0 0 24 24" fill="none" xmlns="http://www.w3.org/2000/svg">
<path d="M19.612 5.415C19.174 4.96773 18.6516 4.61185 18.075 4.368C17.5013 4.12564 16.8848 4.00077 16.262 4.00077C15.6392 4.00077 15.0227 4.12564 14.449 4.368C13.8728 4.61199 13.3507 4.96786 12.913 5.415L12 6.345L11.087 5.415C10.6508 4.96813 10.1299 4.6128 9.55464 4.36983C8.9794 4.12685 8.36145 4.00112 7.73701 4C7.11256 4.00112 6.49461 4.12685 5.91938 4.36983C5.34414 4.6128 4.82317 4.96813 4.38701 5.415C3.49605 6.32745 2.99812 7.55271 3.00001 8.828C3.00001 10.108 3.50001 11.337 4.38801 12.242L5.30001 13.172L12 20L18.7 13.172L19.612 12.242C20.052 11.794 20.402 11.262 20.639 10.676C21.1203 9.49136 21.1203 8.16564 20.639 6.981C20.402 6.39705 20.0531 5.86506 19.612 5.415Z" stroke="#838383" stroke-width="2" stroke-linecap="round" stroke-linejoin="round"/>
</svg>
