<svg width="24" height="24" viewBox="0 0 24 24" fill="none" xmlns="http://www.w3.org/2000/svg">
<path d="M18 7H7V18H18V7Z" fill="white"/>
<path fill-rule="evenodd" clip-rule="evenodd" d="M3.0024 12.0014C3.00134 7.03111 7.02757 3.00106 11.9952 3C13.6792 2.99835 15.3299 3.4697 16.7592 4.36043C20.976 6.98797 22.2653 12.5381 19.6391 16.757C17.013 20.976 11.4657 22.266 7.24899 19.6384L3.50118 20.9771C3.46081 20.9917 3.41819 20.9991 3.37526 20.9989C3.32898 20.9989 3.28313 20.9904 3.23995 20.9737C3.04684 20.8992 2.95071 20.6821 3.02523 20.4889L4.42465 16.8561C3.49637 15.4072 3.00275 13.7224 3.0024 12.0014ZM14.7904 12.7879C15.3653 13.0879 16.2835 13.5378 16.2835 13.5378C16.4116 13.601 16.4927 13.7316 16.4926 13.8746V14.6245C16.3041 15.7167 15.3516 16.5108 14.244 16.4994C13.0664 16.4994 10.8058 15.091 9.85605 14.1401C8.90633 13.1891 7.49792 10.9273 7.49792 9.74985C7.48654 8.64158 8.28022 7.68863 9.37181 7.49999H10.1214C10.2628 7.50013 10.392 7.5799 10.4557 7.70624C10.4557 7.70624 10.9091 8.62492 11.2052 9.20088C11.5388 9.85183 10.9129 10.616 10.5561 10.9768C10.7711 11.5371 11.0958 12.0488 11.511 12.4819C11.944 12.8973 12.4555 13.2221 13.0154 13.4374C13.3752 13.0804 14.1397 12.4527 14.7904 12.7879Z" fill="#27AE60"/>
</svg>
