<svg width="16" height="16" viewBox="0 0 16 16" fill="none" xmlns="http://www.w3.org/2000/svg">
<path d="M1.6001 2.39999H3.8101L5.2901 9.79599C5.34052 10.0504 5.47886 10.2791 5.68089 10.4418C5.88291 10.6045 6.13574 10.6909 6.3951 10.686H11.7641C12.0235 10.6911 12.2764 10.6048 12.4785 10.442C12.6806 10.2793 12.8189 10.0505 12.8691 9.79599L13.7521 5.16199H4.3621M6.5721 13.448C6.5721 13.5945 6.51389 13.7351 6.41027 13.8387C6.30666 13.9423 6.16613 14.0005 6.0196 14.0005C5.87307 14.0005 5.73253 13.9423 5.62892 13.8387C5.52531 13.7351 5.4671 13.5945 5.4671 13.448C5.4671 13.3015 5.52531 13.1609 5.62892 13.0573C5.73253 12.9537 5.87307 12.8955 6.0196 12.8955C6.16613 12.8955 6.30666 12.9537 6.41027 13.0573C6.51389 13.1609 6.5721 13.3015 6.5721 13.448ZM12.6481 13.448C12.6481 13.5945 12.5899 13.7351 12.4863 13.8387C12.3827 13.9423 12.2421 14.0005 12.0956 14.0005C11.9491 14.0005 11.8085 13.9423 11.7049 13.8387C11.6013 13.7351 11.5431 13.5945 11.5431 13.448C11.5431 13.3015 11.6013 13.1609 11.7049 13.0573C11.8085 12.9537 11.9491 12.8955 12.0956 12.8955C12.2421 12.8955 12.3827 12.9537 12.4863 13.0573C12.5899 13.1609 12.6481 13.3015 12.6481 13.448Z" stroke="white" stroke-width="1.5" stroke-linecap="round" stroke-linejoin="round"/>
</svg>
