<svg width="24" height="24" viewBox="0 0 24 24" fill="none" xmlns="http://www.w3.org/2000/svg">
<path d="M19.6569 4.75377C19.6569 4.75377 21.3647 4.07452 21.2224 5.72413C21.175 6.4034 20.748 8.78078 20.4159 11.3523L19.2774 18.9696C19.2774 18.9696 19.1825 20.0855 18.3286 20.2796C17.4747 20.4737 16.1938 19.6004 15.9566 19.4063C15.7668 19.2607 12.3987 17.0774 11.2126 16.01C10.8805 15.7189 10.501 15.1367 11.2601 14.4574L16.2412 9.60561C16.8105 9.02338 17.3798 7.66488 15.0078 9.3145L8.36626 13.9237C8.36626 13.9237 7.60722 14.4089 6.18406 13.9723L3.10046 13.0019C3.10046 13.0019 1.96191 12.2741 3.90694 11.5463C8.65092 9.26594 14.486 6.93707 19.6569 4.75377Z" fill="#2D9CDB"/>
</svg>
