<svg width="24" height="24" viewBox="0 0 24 24" fill="none" xmlns="http://www.w3.org/2000/svg">
<path d="M17.3287 3C17.9387 3.00008 18.5437 3.12965 19.1086 3.38275C19.6735 3.63592 20.1883 4.0082 20.6229 4.47848C21.0579 4.94867 21.4045 5.50827 21.6411 6.12597C21.8777 6.74369 22 7.40649 22 8.07655C22 8.74659 21.8777 9.40942 21.6411 10.0271C21.4045 10.6448 21.0579 11.2044 20.6229 11.6746L19.4821 12.9102L12 21L4.51786 12.9102L3.37521 11.6766C2.49638 10.7263 2 9.43103 2 8.07655C2.00007 6.7225 2.49683 5.4286 3.37521 4.47848C4.25325 3.52909 5.43999 3 6.6713 3C7.90252 3.00002 9.08758 3.52923 9.96558 4.47848L11.1082 5.71217C11.3433 5.96596 11.6646 6.10848 12 6.10848C12.3354 6.1084 12.6568 5.96608 12.8918 5.71217L14.0326 4.47848C14.4674 4.0081 14.9837 3.63592 15.5488 3.38275C16.1137 3.12973 16.7187 3 17.3287 3Z" stroke="black" stroke-width="2.22222" stroke-linecap="round" stroke-linejoin="round"/>
</svg>
